HIERARCHY
ROOT Hips
{
	OFFSET 0.000000 0.000000 0.000000 
	CHANNELS 6 Xposition Yposition Zposition Yrotation Xrotation Zrotation
	JOINT Spine
	{
		OFFSET 0.000000 0.072080 0.012321 
		CHANNELS 3 Xrotation Yrotation Zrotation
		JOINT Spine1
		{
			OFFSET 0.000000 0.126984 -0.001294 
			CHANNELS 3 Xrotation Yrotation Zrotation
			JOINT Spine2
			{
				OFFSET 0.000000 0.106559 -0.010096 
				CHANNELS 3 Xrotation Yrotation Zrotation
				JOINT Neck
				{
					OFFSET 0.000000 0.108417 -0.034017 
					CHANNELS 3 Xrotation Yrotation Zrotation
					JOINT Neck1
					{
						OFFSET 0.000000 0.033906 0.007241 
						CHANNELS 3 Xrotation Yrotation Zrotation
						JOINT Head
						{
							OFFSET 0.000000 0.031458 0.006707 
							CHANNELS 3 Xrotation Yrotation Zrotation
							End Site
							{
								OFFSET 0.000000 0.179920 0.000962 
							}
						}
					}
				}
				JOINT LeftShoulder
				{
					OFFSET 0.048002 0.079586 -0.029634 
					CHANNELS 3 Zrotation Xrotation Yrotation
					JOINT LeftArm
					{
						OFFSET 0.096243 -0.008695 -0.014012 
						CHANNELS 3 Zrotation Xrotation Yrotation
						JOINT LeftForeArm
						{
							OFFSET 0.216305 0.000000 0.000000 
							CHANNELS 3 Xrotation Zrotation Yrotation
							JOINT LeftHand
							{
								OFFSET 0.217764 0.000000 0.000000 
								CHANNELS 3 Zrotation Yrotation Xrotation
								JOINT LeftHandThumb1
								{
									OFFSET 0.018582 -0.007835 0.020476 
									CHANNELS 3 Zrotation Xrotation Yrotation
									JOINT LeftHandThumb2
									{
										OFFSET 0.026269 -0.007835 0.022186 
										CHANNELS 3 Zrotation Xrotation Yrotation
										JOINT LeftHandThumb3
										{
											OFFSET 0.035170 -0.010504 0.017018 
											CHANNELS 3 Zrotation Xrotation Yrotation
											End Site
											{
												OFFSET 0.020312 -0.007813 0.007813 
											}
										}
									}
								}
								JOINT LeftHandMiddle1
								{
									OFFSET 0.081749 0.004803 0.003358 
									CHANNELS 3 Zrotation Xrotation Yrotation
									JOINT LeftHandMiddle2
									{
										OFFSET 0.045251 0.000000 0.000000 
										CHANNELS 3 Zrotation Xrotation Yrotation
										JOINT LeftHandMiddle3
										{
											OFFSET 0.029009 0.000000 0.000000 
											CHANNELS 3 Zrotation Xrotation Yrotation
											End Site
											{
												OFFSET 0.017969 0.000000 0.000000 
											}
										}
									}
								}
								JOINT LeftHandIndex1
								{
									OFFSET 0.081207 0.004803 0.021137 
									CHANNELS 3 Zrotation Xrotation Yrotation
									JOINT LeftHandIndex2
									{
										OFFSET 0.043354 0.000000 0.000000 
										CHANNELS 3 Zrotation Xrotation Yrotation
										JOINT LeftHandIndex3
										{
											OFFSET 0.026493 0.000000 0.000000 
											CHANNELS 3 Zrotation Xrotation Yrotation
											End Site
											{
												OFFSET 0.019531 0.000000 0.000000 
											}
										}
									}
								}
								JOINT LeftHandRing1
								{
									OFFSET 0.080666 0.002509 -0.014652 
									CHANNELS 3 Zrotation Xrotation Yrotation
									JOINT LeftHandRing2
									{
										OFFSET 0.042541 0.000000 0.000000 
										CHANNELS 3 Zrotation Xrotation Yrotation
										JOINT LeftHandRing3
										{
											OFFSET 0.029009 0.000000 0.000000 
											CHANNELS 3 Zrotation Xrotation Yrotation
											End Site
											{
												OFFSET 0.015625 0.000000 0.000000 
											}
										}
									}
								}
								JOINT LeftHandPinky1
								{
									OFFSET 0.078227 -0.000612 -0.030993 
									CHANNELS 3 Zrotation Xrotation Yrotation
									JOINT LeftHandPinky2
									{
										OFFSET 0.028721 0.000000 0.000000 
										CHANNELS 3 Zrotation Xrotation Yrotation
										JOINT LeftHandPinky3
										{
											OFFSET 0.021963 0.000000 0.000000 
											CHANNELS 3 Zrotation Xrotation Yrotation
											End Site
											{
												OFFSET 0.022656 0.000000 0.000000 
											}
										}
									}
								}
							}
						}
					}
				}
				JOINT RightShoulder
				{
					OFFSET -0.047970 0.079586 -0.029634 
					CHANNELS 3 Zrotation Xrotation Yrotation
					JOINT RightArm
					{
						OFFSET -0.096274 -0.008695 -0.014012 
						CHANNELS 3 Zrotation Xrotation Yrotation
						JOINT RightForeArm
						{
							OFFSET -0.216305 0.000000 0.000000 
							CHANNELS 3 Xrotation Zrotation Yrotation
							JOINT RightHand
							{
								OFFSET -0.217764 0.000000 0.000000 
								CHANNELS 3 Zrotation Yrotation Xrotation
								JOINT RightHandThumb1
								{
									OFFSET -0.019670 -0.007318 0.019638 
									CHANNELS 3 Zrotation Xrotation Yrotation
									JOINT RightHandThumb2
									{
										OFFSET -0.025498 -0.008492 0.023179 
										CHANNELS 3 Zrotation Xrotation Yrotation
										JOINT RightHandThumb3
										{
											OFFSET -0.034504 -0.010705 0.016680 
											CHANNELS 3 Zrotation Xrotation Yrotation
											End Site
											{
												OFFSET -0.020312 -0.007813 0.007813 
											}
										}
									}
								}
								JOINT RightHandIndex1
								{
									OFFSET -0.081770 0.003825 0.021187 
									CHANNELS 3 Zrotation Xrotation Yrotation
									JOINT RightHandIndex2
									{
										OFFSET -0.042006 0.000000 0.000000 
										CHANNELS 3 Zrotation Xrotation Yrotation
										JOINT RightHandIndex3
										{
											OFFSET -0.026449 0.000000 0.000000 
											CHANNELS 3 Zrotation Xrotation Yrotation
											End Site
											{
												OFFSET -0.020312 0.000000 0.000000 
											}
										}
									}
								}
								JOINT RightHandMiddle1
								{
									OFFSET -0.084059 0.003825 0.003342 
									CHANNELS 3 Zrotation Xrotation Yrotation
									JOINT RightHandMiddle2
									{
										OFFSET -0.043881 0.000000 0.000000 
										CHANNELS 3 Zrotation Xrotation Yrotation
										JOINT RightHandMiddle3
										{
											OFFSET -0.029191 0.000000 0.000000 
											CHANNELS 3 Zrotation Xrotation Yrotation
											End Site
											{
												OFFSET -0.017969 0.000000 0.000000 
											}
										}
									}
								}
								JOINT RightHandRing1
								{
									OFFSET -0.081798 0.003030 -0.015127 
									CHANNELS 3 Zrotation Xrotation Yrotation
									JOINT RightHandRing2
									{
										OFFSET -0.042198 0.000000 0.000000 
										CHANNELS 3 Zrotation Xrotation Yrotation
										JOINT RightHandRing3
										{
											OFFSET -0.026497 0.000000 0.000000 
											CHANNELS 3 Zrotation Xrotation Yrotation
											End Site
											{
												OFFSET -0.017188 0.000000 0.000000 
											}
										}
									}
								}
								JOINT RightHandPinky1
								{
									OFFSET -0.077902 -0.000930 -0.030891 
									CHANNELS 3 Zrotation Xrotation Yrotation
									JOINT RightHandPinky2
									{
										OFFSET -0.028538 0.000000 0.000000 
										CHANNELS 3 Zrotation Xrotation Yrotation
										JOINT RightHandPinky3
										{
											OFFSET -0.021734 0.000000 0.000000 
											CHANNELS 3 Zrotation Xrotation Yrotation
											End Site
											{
												OFFSET -0.022656 0.000000 0.000000 
											}
										}
									}
								}
							}
						}
					}
				}
			}
		}
	}
	JOINT LeftUpLeg
	{
		OFFSET 0.075264 -0.025573 0.000000 
		CHANNELS 3 Xrotation Yrotation Zrotation
		JOINT LeftLeg
		{
			OFFSET 0.000000 -0.326016 -0.013516 
			CHANNELS 3 Xrotation Yrotation Zrotation
			JOINT LeftFoot
			{
				OFFSET 0.000098 -0.306172 -0.006623 
				CHANNELS 3 Xrotation Yrotation Zrotation
				JOINT LeftToeBase
				{
					OFFSET -0.001432 -0.095259 0.064705 
					CHANNELS 3 Xrotation Yrotation Zrotation
					End Site
					{
						OFFSET 0.000000 0.000000 0.079438 
					}
				}
			}
		}
	}
	JOINT RightUpLeg
	{
		OFFSET -0.075264 -0.025573 0.000000 
		CHANNELS 3 Xrotation Yrotation Zrotation
		JOINT RightLeg
		{
			OFFSET 0.000000 -0.326016 -0.013516 
			CHANNELS 3 Xrotation Yrotation Zrotation
			JOINT RightFoot
			{
				OFFSET 0.000098 -0.306172 -0.006623 
				CHANNELS 3 Xrotation Yrotation Zrotation
				JOINT RightToeBase
				{
					OFFSET -0.001432 -0.095259 0.064705 
					CHANNELS 3 Xrotation Yrotation Zrotation
					End Site
					{
						OFFSET 0.000025 0.000000 0.079438 
					}
				}
			}
		}
	}
}
MOTION
Frames: 4
Frame Time: 0.033333
-0.019217 0.627443 0.779382 -178.887695 -0.871600 -1.672700 16.527901 0.115900 -2.540200 2.634600 0.140500 0.141700 2.636200 0.110700 0.144200 -0.347600 -0.243100 2.481800 -0.000000 0.000000 -0.000000 -29.415800 -3.594400 2.691000 -14.760200 2.243700 -6.955800 -49.276501 11.065900 -5.279400 0.000000 -0.000000 -58.698799 -15.511900 18.242599 32.699600 8.022800 2.294000 6.150500 -5.075500 9.206300 4.670700 22.235500 -22.805799 -18.897400 -21.579901 0.001300 4.610300 -33.341202 0.002500 -0.008300 -20.192200 0.000900 -0.005200 -10.255800 0.000400 -0.881500 -35.516399 0.002800 -0.008700 -20.468000 0.000900 -0.005300 -23.647400 0.001400 8.735200 -42.188000 0.003900 -0.010100 -13.396700 0.000400 -0.003500 -23.163799 -0.812900 5.105200 -33.068802 0.002400 -0.008200 -17.999800 0.000700 -0.004600 16.834299 1.965300 4.851300 45.651501 5.187700 28.451099 -0.000000 0.000000 58.620201 -0.822100 13.857900 6.984800 -3.824900 -2.713200 -4.257200 -0.467800 8.662300 -14.095100 -16.754400 -9.769700 19.382999 22.954599 1.114700 2.973500 40.335701 0.001900 0.005100 19.747000 0.000400 0.002700 36.771500 0.001800 1.168800 37.159199 0.001600 0.004800 13.849000 0.000200 0.001900 45.392502 0.002600 1.258500 32.666599 0.001300 0.004300 17.820499 0.000400 0.002400 45.130001 0.002600 4.790100 32.894901 0.001300 0.004300 25.687401 0.000800 0.003400 -40.269299 -1.435300 0.868000 76.363503 7.588400 3.682700 -34.839298 2.694100 -5.015400 -5.379100 0.000000 -0.000000 -56.087299 -1.863900 -10.613300 90.713997 -0.173600 0.795400 6.388200 0.396800 7.284200 -1.563500 0.000000 0.000000 
-0.022801 0.634299 0.850727 179.208801 -1.642900 -0.955300 16.106100 4.221400 -3.315000 2.759400 1.278700 0.106100 2.765100 1.239600 0.079300 -0.313200 -0.577000 3.650500 -0.000000 0.000000 -0.000000 -29.548800 -6.893500 2.225900 -16.251400 2.263000 -6.367800 -54.100800 14.441300 3.466600 -0.000000 0.000000 -52.512699 -19.969999 21.862499 25.633301 8.022800 2.294000 6.150500 -5.618700 9.414800 5.831900 17.747299 -23.072399 -15.350200 -22.493299 0.001500 2.630200 -32.943298 0.002400 -0.008200 -19.011801 0.000800 -0.004900 -10.408800 0.000400 -1.461500 -34.881100 0.002700 -0.008600 -20.069201 0.000900 -0.005200 -22.705799 0.001300 9.495500 -41.692799 0.003800 -0.010000 -11.840500 0.000300 -0.003100 -23.478399 -1.525300 8.625300 -34.122200 0.002600 -0.008400 -17.912500 0.000700 -0.004600 15.358700 1.977800 5.410600 44.482201 1.517400 31.622700 -0.000000 -0.000000 66.389198 -5.112300 15.620300 3.138400 -3.824900 -2.713200 -4.257200 -1.166300 8.249600 -12.887600 -16.065100 -9.869400 18.942200 25.623199 1.740700 3.548200 41.639801 0.002000 0.005300 19.917299 0.000500 0.002700 39.943001 0.002100 3.082600 38.548401 0.001700 0.004900 13.641400 0.000200 0.001900 48.108200 0.002900 5.096600 33.761398 0.001300 0.004400 18.149700 0.000400 0.002500 45.033798 0.002500 8.189400 33.554100 0.001300 0.004400 25.362700 0.000800 0.003400 -44.690601 -1.307800 0.618800 71.432503 7.966700 3.197100 -24.652201 2.511800 -5.908600 -3.287400 0.000000 -0.000000 -47.102699 -2.712800 -12.225900 95.706596 4.420800 0.023600 4.993000 0.414100 8.334800 -1.768600 -0.000000 -0.000000 
-0.023403 0.657028 0.922888 178.440598 -3.297800 -0.484100 16.410200 7.302500 -3.487400 2.800900 2.114200 0.100500 2.812300 2.071300 0.051900 -0.050300 -0.812500 4.904700 -0.000000 0.000000 -0.000000 -27.547199 -9.482800 2.038800 -15.634800 1.807800 -4.570900 -58.283401 15.388000 14.918800 -0.000000 -0.000000 -54.131302 -23.596500 19.464800 19.139000 8.022800 2.294000 6.150500 -5.983600 9.547200 6.603400 15.364100 -22.906099 -13.235300 -24.375299 0.001700 2.619900 -32.429001 0.002300 -0.008100 -18.456200 0.000800 -0.004700 -11.823000 0.000500 -1.379500 -35.273998 0.002800 -0.008700 -19.950800 0.000900 -0.005100 -24.078600 0.001400 10.271800 -41.263599 0.003700 -0.009900 -11.165700 0.000300 -0.002900 -25.525400 -1.822500 9.930700 -34.881199 0.002700 -0.008600 -17.658100 0.000700 -0.004600 14.902200 1.886100 5.174200 42.035000 0.126300 32.977699 0.000000 -0.000000 74.206299 -7.921000 18.081200 0.820900 -3.825000 -2.713200 -4.257200 -3.366700 6.923300 -8.947700 -16.506300 -9.695600 19.649900 29.555401 2.430800 4.172400 41.647999 0.002000 0.005300 19.328699 0.000400 0.002600 40.864300 0.002100 5.674900 40.829899 0.001900 0.005200 13.257600 0.000200 0.001800 47.126499 0.002700 9.442800 35.163898 0.001400 0.004600 18.881399 0.000400 0.002600 40.855598 0.002000 12.738100 32.759499 0.001200 0.004300 25.643900 0.000800 0.003400 -43.347698 -0.594800 0.929100 57.919102 7.429000 3.136000 -10.996400 1.597500 -4.778600 -1.043800 0.000000 -0.000000 -34.259602 -3.500200 -12.787000 92.375999 5.308900 -0.727300 4.950500 0.550400 9.502900 -1.649800 0.000000 -0.000000 
-0.019492 0.684248 1.001158 179.720901 -3.760900 0.223300 16.265699 8.367200 -3.727600 2.662800 2.405600 0.187300 2.678600 2.359000 0.136800 0.205300 -0.840600 5.815700 -0.000000 0.000000 -0.000000 -24.950800 -11.437000 3.187400 -13.222800 1.505500 -4.036700 -60.916199 12.034400 25.839600 -0.000000 0.000000 -57.572201 -27.572001 19.447599 14.827600 8.022800 2.294000 6.150500 -7.235700 9.960000 9.201800 17.038099 -23.010300 -15.341500 -29.205601 0.002300 2.045300 -31.848000 0.002300 -0.007900 -18.747000 0.000800 -0.004800 -21.776100 0.001400 -1.062900 -31.856400 0.002300 -0.007900 -19.864100 0.000900 -0.005100 -29.753401 0.002200 9.132100 -42.143101 0.003900 -0.010100 -12.545400 0.000400 -0.003300 -30.556200 -1.289800 8.110300 -34.958801 0.002700 -0.008600 -18.201799 0.000700 -0.004700 14.488600 1.918000 5.470400 39.423901 0.300500 31.575399 0.000000 -0.000000 81.419502 -8.076900 20.525000 2.955000 -3.824900 -2.713200 -4.257200 -2.761600 7.317200 -10.038300 -14.955100 -10.016800 18.335100 29.216499 2.800500 4.495800 41.652500 0.002000 0.005300 19.087900 0.000400 0.002600 40.670399 0.002100 6.307000 41.820900 0.002000 0.005300 13.300300 0.000200 0.001800 46.445599 0.002600 10.306400 35.225498 0.001500 0.004600 18.935400 0.000400 0.002600 40.599998 0.001900 12.649100 33.511799 0.001300 0.004400 25.390100 0.000800 0.003400 -36.841599 0.161600 0.234200 31.259600 5.036600 3.375300 9.823000 0.626000 -2.273000 -1.334300 -0.000000 -0.000000 -23.603201 -3.923700 -11.778200 84.363297 6.309600 -1.540700 7.127500 0.982900 11.606500 -3.886600 -0.000000 0.000000 
